<?xml version="1.0" standalone="no"?>
<!DOCTYPE svg PUBLIC "-//W3C//DTD SVG 20010904//EN"
 "http://www.w3.org/TR/2001/REC-SVG-20010904/DTD/svg10.dtd">
<svg version="1.0" xmlns="http://www.w3.org/2000/svg"
 width="1280.000000pt" height="1280.000000pt" viewBox="0 0 1280.000000 1280.000000"
 preserveAspectRatio="xMidYMid meet">
<metadata>
Created by potrace 1.14, written by Peter Selinger 2001-2017
</metadata>
<g transform="translate(0.000000,1280.000000) scale(0.100000,-0.100000)"
fill="#000000" stroke="none">
<path d="M6165 11314 c-22 -2 -103 -8 -180 -14 -584 -45 -1244 -229 -1777
-496 -342 -171 -721 -423 -1013 -672 -132 -113 -419 -400 -532 -533 -827 -972
-1254 -2242 -1173 -3494 70 -1075 462 -2052 1161 -2890 105 -125 412 -434 544
-547 1053 -898 2399 -1309 3780 -1153 1325 150 2564 866 3366 1946 543 730
856 1539 955 2464 25 228 25 719 0 950 -118 1125 -585 2136 -1353 2936 -809
840 -1901 1370 -3063 1484 -154 15 -625 28 -715 19z m680 -384 c1065 -118
1984 -546 2729 -1270 707 -688 1168 -1579 1320 -2552 44 -281 51 -379 51 -718
-1 -338 -10 -460 -56 -735 -226 -1352 -1042 -2525 -2229 -3204 -1366 -782
-3040 -802 -4425 -53 -966 522 -1706 1371 -2098 2407 -275 727 -356 1566 -226
2340 227 1354 1041 2525 2229 3204 583 334 1234 534 1920 591 136 11 656 5
785 -10z"/>
<path d="M5880 7499 l0 -2081 -108 -186 c-60 -103 -158 -272 -218 -377 l-109
-190 -3 2088 -2 2087 -683 0 -683 0 -36 -62 c-20 -35 -85 -148 -146 -253 -60
-104 -270 -469 -467 -810 -420 -728 -506 -877 -673 -1165 -68 -118 -125 -220
-125 -225 0 -6 53 -102 118 -215 166 -288 704 -1220 979 -1695 l231 -400 6
280 c4 154 7 440 8 636 l1 356 -216 374 c-119 206 -252 436 -297 512 -44 76
-80 144 -80 150 0 7 41 82 90 167 166 287 655 1134 743 1285 47 83 108 187
134 233 l48 82 149 0 149 0 0 -2365 0 -2365 375 0 376 0 206 313 c114 171 334
506 491 742 156 237 329 498 383 581 l99 151 0 1519 c0 835 3 1664 7 1842 l6
322 806 -2 806 -3 3 -710 c1 -390 0 -720 -3 -732 -5 -22 -9 -23 -182 -25
l-178 -3 -207 -360 c-114 -198 -208 -366 -208 -373 0 -10 155 -12 758 -10
l757 3 3 1483 2 1482 -1555 0 -1555 0 0 -2081z"/>
<path d="M8925 5627 c-83 -143 -100 -176 -81 -153 16 20 16 20 16 0 0 -11 -7
-30 -16 -43 -14 -19 -14 -25 -3 -32 7 -4 11 -10 9 -13 -3 -2 -13 1 -23 9 -18
13 -13 50 6 38 6 -3 7 -1 3 5 -11 17 -11 17 -44 -40 -16 -29 -40 -70 -52 -90
-12 -21 -19 -38 -16 -38 3 0 13 14 21 30 9 17 20 28 25 25 6 -4 7 1 3 11 -4
12 -3 15 5 10 8 -4 10 -2 6 7 -3 8 0 18 6 22 7 4 9 -1 6 -17 -7 -38 -18 -58
-27 -52 -12 7 -11 -10 3 -41 9 -20 9 -28 -2 -38 -10 -9 -11 -9 -6 1 4 7 4 22
0 34 -7 22 -7 22 -31 -7 -14 -17 -23 -22 -19 -12 8 24 -1 21 -15 -4 -6 -12 -7
-19 -1 -15 6 3 9 -4 8 -18 0 -13 -4 -22 -8 -19 -5 2 -9 -1 -9 -6 -3 -21 -5
-27 -37 -75 -17 -27 -29 -53 -26 -57 3 -5 -2 -9 -10 -9 -20 0 -20 2 5 44 12
20 19 36 16 36 -3 0 -42 -64 -88 -142 -45 -79 -93 -162 -107 -186 -14 -24 -19
-42 -12 -40 7 2 14 -5 15 -15 2 -11 1 -16 -2 -13 -3 3 -14 -5 -24 -17 -20 -24
-25 -17 -9 14 6 10 8 19 6 19 -3 0 -13 -14 -22 -31 -8 -17 -11 -29 -6 -25 5 3
17 -3 27 -14 18 -19 11 -26 -18 -21 -5 1 -7 -4 -4 -11 7 -21 -13 -50 -30 -44
-13 5 -14 4 -3 -8 6 -9 10 -21 7 -28 -3 -7 -6 -4 -6 7 -1 18 -3 18 -21 -5 -11
-14 -20 -29 -20 -34 0 -5 -7 -18 -16 -27 -9 -10 -18 -29 -19 -41 -2 -13 -8
-42 -14 -66 -7 -23 -13 -91 -15 -150 -5 -137 -8 -152 -16 -72 l-7 65 -1 -62
-2 -63 -632 -3 -633 -2 639 -3 c352 -1 637 -5 634 -8 -4 -3 -274 -5 -602 -4
-427 0 -602 -3 -617 -11 -15 -8 -19 -8 -15 0 4 6 0 11 -8 11 -9 0 -16 -6 -16
-14 0 -7 -7 -19 -15 -26 -17 -15 -19 -7 -5 21 6 10 8 19 6 19 -3 0 -12 -14
-21 -30 -10 -19 -12 -29 -4 -28 22 5 17 -33 -6 -48 -24 -15 -27 -45 -7 -52 7
-2 10 2 6 11 -3 8 -1 18 5 22 7 4 8 0 4 -11 -5 -13 -3 -15 8 -9 12 8 12 6 0
-8 -8 -10 -21 -15 -31 -12 -10 3 -25 -2 -34 -10 -17 -18 -19 -16 -10 9 3 9 9
14 13 12 4 -3 7 4 7 15 0 24 -5 18 -46 -55 -18 -33 -28 -56 -22 -52 7 4 12 5
12 3 0 -3 7 -20 15 -40 14 -34 14 -35 -7 -29 -15 4 -19 2 -14 -7 6 -9 3 -9
-13 1 -12 7 -21 17 -21 22 0 5 3 6 7 3 7 -7 33 11 33 23 0 19 -33 3 -46 -23
-9 -16 -11 -26 -6 -23 6 4 13 2 17 -4 3 -5 1 -11 -4 -11 -6 -1 -16 -2 -22 -3
-5 0 -24 -26 -41 -56 -34 -60 -29 -63 7 -4 l22 36 0 -31 c0 -18 -3 -27 -7 -21
-6 10 -55 -78 -52 -92 1 -5 -3 -8 -9 -8 -5 0 -8 -4 -5 -8 3 -5 -3 -18 -13 -28
-33 -36 -53 -74 -47 -89 4 -11 2 -14 -6 -9 -7 5 -9 2 -5 -9 4 -11 2 -14 -9
-10 -12 4 -19 -16 -16 -48 1 -3 -10 -5 -23 -3 -14 1 -27 -2 -31 -7 -3 -5 485
-9 1220 -9 856 0 1226 3 1226 11 0 5 -4 7 -10 4 -5 -3 -10 -2 -10 4 0 5 -3 17
-7 27 -5 13 -3 15 7 9 10 -6 11 189 6 1081 -3 599 -6 1104 -6 1122 1 19 -3 31
-9 28 -5 -4 -8 -15 -6 -26 2 -11 1 -19 -3 -17 -4 1 -7 -2 -7 -8 0 -5 3 -9 8
-7 4 1 7 -3 7 -9 0 -6 -7 -8 -16 -5 -9 4 -23 1 -30 -5 -19 -16 -17 -5 4 31 10
16 22 27 27 22 5 -4 5 -2 1 5 -4 7 5 31 19 54 15 22 25 43 23 45 -3 2 -31 -42
-63 -99z m5 -78 c0 -6 4 -8 9 -4 5 3 12 1 15 -4 7 -11 -13 -9 -31 2 -9 6 -13
2 -13 -10 0 -14 -2 -15 -9 -4 -7 11 -11 8 -17 -10 -4 -13 -7 -28 -5 -34 1 -6
-2 -5 -9 1 -15 15 17 69 42 71 10 1 18 -3 18 -8z m-111 -163 c9 -11 9 -16 0
-22 -8 -4 -9 -3 -5 4 4 7 2 12 -3 12 -6 0 -11 5 -11 10 0 14 5 13 19 -4z m-83
-164 c-17 -16 -18 -16 -5 5 7 12 15 20 18 17 3 -2 -3 -12 -13 -22z m-138 -207
c0 -13 -4 -22 -9 -20 -4 3 -10 1 -13 -4 -4 -5 -1 -13 5 -17 8 -5 9 -3 4 5 -6
10 -3 11 14 2 28 -16 27 -22 -4 -17 -17 3 -29 -2 -39 -16 -9 -12 -13 -25 -10
-30 3 -4 0 -8 -5 -8 -6 0 -11 -7 -11 -15 0 -8 -4 -15 -10 -15 -5 0 -10 -12
-10 -26 0 -14 -4 -23 -10 -19 -14 9 -12 -8 3 -24 7 -8 7 -11 1 -8 -17 10 -37
-20 -31 -45 6 -22 6 -22 -8 -4 -8 11 -15 16 -15 11 0 -4 -3 -6 -6 -3 -4 5 145
278 152 278 1 0 2 -11 2 -25z m-121 -300 c0 -8 -4 -12 -9 -9 -5 3 -6 10 -3 15
9 13 12 11 12 -6z m-16 -22 c13 -16 12 -17 -3 -4 -10 7 -18 15 -18 17 0 8 8 3
21 -13z m-150 -244 c9 -17 8 -20 -2 -14 -9 6 -10 3 -5 -11 4 -10 3 -15 -1 -10
-7 7 -13 56 -6 56 1 0 7 -10 14 -21z m-1444 -589 c-19 -27 -33 -9 -17 21 8 14
15 18 22 11 7 -7 6 -17 -5 -32z m-74 -127 c-3 -7 -9 -10 -14 -7 -14 8 -11 21
5 21 8 0 12 -6 9 -14z m-43 -113 c0 -5 -4 -10 -10 -10 -5 0 -10 5 -10 10 0 6
5 10 10 10 6 0 10 -4 10 -10z m-110 -236 c0 -8 -19 -13 -24 -6 -3 5 1 9 9 9 8
0 15 -2 15 -3z"/>
<path d="M8655 5158 c-11 -24 -12 -28 -2 -16 8 10 16 16 18 13 3 -2 5 5 5 15
0 27 -3 25 -21 -12z"/>
<path d="M8366 4660 c-2 -3 -15 -26 -31 -52 -15 -27 -24 -48 -21 -48 3 0 13
14 21 31 14 26 19 29 33 18 14 -11 15 -11 5 1 -19 21 -16 34 5 19 14 -11 15
-11 5 1 -19 20 -16 29 7 25 11 -2 20 0 20 5 0 9 -39 10 -44 0z"/>
<path d="M8285 4520 c-9 -16 -13 -30 -11 -30 3 0 12 14 21 30 9 17 13 30 11
30 -3 0 -12 -13 -21 -30z"/>
<path d="M8255 4469 c-4 -6 -5 -12 -2 -15 2 -3 7 2 10 11 7 17 1 20 -8 4z"/>
<path d="M8243 4350 c0 -47 2 -66 4 -42 2 23 2 61 0 85 -2 23 -4 4 -4 -43z"/>
<path d="M6910 4000 c-6 -11 -8 -20 -6 -20 3 0 10 9 16 20 6 11 8 20 6 20 -3
0 -10 -9 -16 -20z"/>
<path d="M6830 3795 c-11 -13 -10 -14 4 -9 9 3 16 10 16 15 0 13 -6 11 -20 -6z"/>
<path d="M6689 3618 c-6 -13 -23 -42 -36 -65 -14 -24 -22 -43 -19 -43 3 0 13
14 21 30 9 18 21 28 27 24 7 -4 8 -3 4 4 -4 6 0 25 9 42 8 16 13 30 11 30 -3
0 -11 -10 -17 -22z"/>
<path d="M6617 3493 c-2 -5 -16 -29 -31 -54 -20 -34 -22 -46 -11 -46 8 0 12 4
9 9 -3 4 7 28 21 53 15 25 24 45 22 45 -3 0 -8 -3 -10 -7z"/>
</g>
</svg>
